<svg xmlns="http://www.w3.org/2000/svg" xmlns:xlink="http://www.w3.org/1999/xlink" width="600" height="600" viewBox="0 0 600 600"><defs><linearGradient id="a" x1="0.21" y1="0.028" x2="0.738" y2="0.983" gradientUnits="objectBoundingBox"><stop offset="0" stop-color="#419f52"/><stop offset="1" stop-color="#215029"/></linearGradient><filter id="b"><feOffset dx="4" dy="8" input="SourceAlpha"/><feGaussianBlur stdDeviation="5" result="c"/><feFlood flood-opacity="0.161" result="d"/><feComposite operator="out" in="SourceGraphic" in2="c"/><feComposite operator="in" in="d"/><feComposite operator="in" in2="SourceGraphic"/></filter><clipPath id="f"><rect width="600" height="600"/></clipPath></defs><g id="e" clip-path="url(#f)"><g data-type="innerShadowGroup"><path d="M-3101.272,532.693a40.458,40.458,0,0,1-12.674-30.017,40.461,40.461,0,0,1,12.674-30.017,41.777,41.777,0,0,1,30.283-12.406,40.891,40.891,0,0,1,30.018,12.406,40.891,40.891,0,0,1,12.407,30.017,40.888,40.888,0,0,1-12.407,30.017A40.888,40.888,0,0,1-3070.99,545.1,41.774,41.774,0,0,1-3101.272,532.693Zm-234.8,0a40.889,40.889,0,0,1-12.408-30.017,40.892,40.892,0,0,1,12.408-30.017,40.888,40.888,0,0,1,30.017-12.406q18.143,0,30.417,12.406a41.114,41.114,0,0,1,12.273,30.017,41.111,41.111,0,0,1-12.273,30.017q-12.273,12.408-30.417,12.407A40.885,40.885,0,0,1-3336.068,532.693Zm230.321-112.2h-220.316q-28.282,0-43.357-16.008t-19.344-43.758l-39.488-272.417c-5.515,0-10.075-2.09-14.344-6.27A20.341,20.341,0,0,1-3449,66.97a20.777,20.777,0,0,1,6.4-15.208,20.187,20.187,0,0,1,14.675-6.4h4.738q20.279,0,27.882,7.871t10.006,23.346l4.535,29.883h239.6a210.744,210.744,0,0,0-1.335,22.679,161.319,161.319,0,0,0,12.674,63.9,163.2,163.2,0,0,0,35.353,52.3,165.681,165.681,0,0,0,53.1,35.353q.578.243,1.157.482h0a164.831,164.831,0,0,0,30.394,9.19,179.763,179.763,0,0,0,33.349,3.4l.469,0,0,.008-9.707,66.962a98.555,98.555,0,0,1-6.971,24.814,71.687,71.687,0,0,1-5.511,10.206,63.1,63.1,0,0,1-6.862,8.738,46.182,46.182,0,0,1-8.362,7,49.953,49.953,0,0,1-10.014,5,62.156,62.156,0,0,1-11.665,3,84.7,84.7,0,0,1-13.316,1Zm52.262-41.623a24,24,0,0,0,8.938-1.6,20.069,20.069,0,0,0,7.071-4.8,26.941,26.941,0,0,0,5-7.4,35.351,35.351,0,0,0,2.734-9.4l4-26.415h-323.007l4,26.415q1.6,10.4,7.738,16.809t16.008,6.4h267.509Zm25.453-130.605a128.436,128.436,0,0,1-41.223-27.882,132.982,132.982,0,0,1-27.882-41.356,124.515,124.515,0,0,1-10.138-49.894q0-35.486,17.609-64.836a134.148,134.148,0,0,1,46.826-46.826Q-3013.624,0-2978.138,0a124.559,124.559,0,0,1,64.7,17.476A132.332,132.332,0,0,1-2866.477,64.3Q-2849,93.652-2849,129.138a122.183,122.183,0,0,1-10.272,49.76,134.213,134.213,0,0,1-28.148,41.223,132.3,132.3,0,0,1-41.223,28.016,122.91,122.91,0,0,1-49.494,10.139A125.928,125.928,0,0,1-3028.032,248.27Zm-26.949-131.005q-4.535,4.4-4.535,11.874t4.535,11.873a16.148,16.148,0,0,0,11.74,4.4h48.56V194.24a15.887,15.887,0,0,0,4.536,11.74q4.536,4.536,12.007,4.536t11.874-4.536a16.15,16.15,0,0,0,4.4-11.74V145.414h48.827a16.148,16.148,0,0,0,11.74-4.4q4.537-4.4,4.536-11.873t-4.536-11.874a16.151,16.151,0,0,0-11.74-4.4h-48.827V64.3q0-7.471-4.4-12.006t-11.874-4.536q-7.471,0-12.007,4.536t-4.536,12.006v48.56h-48.56A16.151,16.151,0,0,0-3054.98,117.264Z" transform="translate(3449 27)" fill="url(#a)"/><g transform="matrix(1, 0, 0, 1, 0, 0)" filter="url(#b)"><path d="M-3101.272,532.693a40.458,40.458,0,0,1-12.674-30.017,40.461,40.461,0,0,1,12.674-30.017,41.777,41.777,0,0,1,30.283-12.406,40.891,40.891,0,0,1,30.018,12.406,40.891,40.891,0,0,1,12.407,30.017,40.888,40.888,0,0,1-12.407,30.017A40.888,40.888,0,0,1-3070.99,545.1,41.774,41.774,0,0,1-3101.272,532.693Zm-234.8,0a40.889,40.889,0,0,1-12.408-30.017,40.892,40.892,0,0,1,12.408-30.017,40.888,40.888,0,0,1,30.017-12.406q18.143,0,30.417,12.406a41.114,41.114,0,0,1,12.273,30.017,41.111,41.111,0,0,1-12.273,30.017q-12.273,12.408-30.417,12.407A40.885,40.885,0,0,1-3336.068,532.693Zm230.321-112.2h-220.316q-28.282,0-43.357-16.008t-19.344-43.758l-39.488-272.417c-5.515,0-10.075-2.09-14.344-6.27A20.341,20.341,0,0,1-3449,66.97a20.777,20.777,0,0,1,6.4-15.208,20.187,20.187,0,0,1,14.675-6.4h4.738q20.279,0,27.882,7.871t10.006,23.346l4.535,29.883h239.6a210.744,210.744,0,0,0-1.335,22.679,161.319,161.319,0,0,0,12.674,63.9,163.2,163.2,0,0,0,35.353,52.3,165.681,165.681,0,0,0,53.1,35.353q.578.243,1.157.482h0a164.831,164.831,0,0,0,30.394,9.19,179.763,179.763,0,0,0,33.349,3.4l.469,0,0,.008-9.707,66.962a98.555,98.555,0,0,1-6.971,24.814,71.687,71.687,0,0,1-5.511,10.206,63.1,63.1,0,0,1-6.862,8.738,46.182,46.182,0,0,1-8.362,7,49.953,49.953,0,0,1-10.014,5,62.156,62.156,0,0,1-11.665,3,84.7,84.7,0,0,1-13.316,1Zm52.262-41.623a24,24,0,0,0,8.938-1.6,20.069,20.069,0,0,0,7.071-4.8,26.941,26.941,0,0,0,5-7.4,35.351,35.351,0,0,0,2.734-9.4l4-26.415h-323.007l4,26.415q1.6,10.4,7.738,16.809t16.008,6.4h267.509Zm25.453-130.605a128.436,128.436,0,0,1-41.223-27.882,132.982,132.982,0,0,1-27.882-41.356,124.515,124.515,0,0,1-10.138-49.894q0-35.486,17.609-64.836a134.148,134.148,0,0,1,46.826-46.826Q-3013.624,0-2978.138,0a124.559,124.559,0,0,1,64.7,17.476A132.332,132.332,0,0,1-2866.477,64.3Q-2849,93.652-2849,129.138a122.183,122.183,0,0,1-10.272,49.76,134.213,134.213,0,0,1-28.148,41.223,132.3,132.3,0,0,1-41.223,28.016,122.91,122.91,0,0,1-49.494,10.139A125.928,125.928,0,0,1-3028.032,248.27Zm-26.949-131.005q-4.535,4.4-4.535,11.874t4.535,11.873a16.148,16.148,0,0,0,11.74,4.4h48.56V194.24a15.887,15.887,0,0,0,4.536,11.74q4.536,4.536,12.007,4.536t11.874-4.536a16.15,16.15,0,0,0,4.4-11.74V145.414h48.827a16.148,16.148,0,0,0,11.74-4.4q4.537-4.4,4.536-11.873t-4.536-11.874a16.151,16.151,0,0,0-11.74-4.4h-48.827V64.3q0-7.471-4.4-12.006t-11.874-4.536q-7.471,0-12.007,4.536t-4.536,12.006v48.56h-48.56A16.151,16.151,0,0,0-3054.98,117.264Z" transform="translate(3449 27)" fill="#fff"/></g></g></g></svg>